<svg width="80" height="51" viewBox="0 0 80 51" fill="none" xmlns="http://www.w3.org/2000/svg">
<path fill-rule="evenodd" clip-rule="evenodd" d="M14.6944 27.9377L2.24146 23.9932C2.90792 14.7204 8.90152 11.8862 11.5812 16.9817L18.5489 16.5998L14.6946 27.9381L14.6944 27.9377Z" fill="#BFBFBF" stroke="black" stroke-width="3"/>
<path fill-rule="evenodd" clip-rule="evenodd" d="M49.1249 39.3475L19.8792 29.2793C13.2106 19.8564 34.3446 10.8755 36.9134 11.0003L64.0036 15.4559C88.4805 24.5987 61.5006 34.2332 49.1249 39.3475Z" fill="#BFBFBF" stroke="#698B9E" stroke-width="3"/>
<path fill-rule="evenodd" clip-rule="evenodd" d="M24.4762 14.7294L8.36952 15.7782C8.29238 12.8806 22.3778 3.57464 35.1915 10.6885L24.4769 14.7294H24.4762Z" fill="#BFBFBF" stroke="black" stroke-width="3"/>
<path fill-rule="evenodd" clip-rule="evenodd" d="M32.0612 9.58461C32.8096 8.91666 39.5746 11.0943 36.8284 11.8426L25.0787 17.9473C19.7782 20.7011 18.9119 25.4977 19.7298 29.0732L13.2548 27.4251C12.5438 26.6146 12.9917 20.7863 15.7101 18.1635C19.8972 14.1238 31.397 9.35637 32.0615 9.58439L32.0612 9.58461Z" fill="#EEEEEC" stroke="black" stroke-width="3"/>
<path fill-rule="evenodd" clip-rule="evenodd" d="M13.6474 11.449C12.4485 10.9196 13.7218 3.74337 13.1516 3.92236L10.5628 4.73645L10.6735 12.5936L9.77494 13.1319C9.6516 7.72624 9.83852 6.4282 9.82397 5.10015C8.11772 5.47428 7.17431 6.36774 7.15378 7.01167L6.82216 17.4015C6.86274 14.6901 6.24336 18.8139 5.88399 16.6965C5.56713 14.8294 6.21003 6.76567 6.06094 6.85108C4.33633 7.83896 3.16471 9.02968 3.07051 10.4467L2.71916 23.1152L49.0254 37.9866L49.3316 28.7286C48.6946 26.0863 49.755 23.7032 51.716 21.355C57.2523 18.0566 63.5812 16.5522 69.8863 14.9956C72.4682 14.4391 73.9436 15.2746 74.1544 17.7009L73.6835 36.8926L72.2295 37.4724L72.404 30.5593L50.9413 40.7144L50.7735 47.5248L48.959 47.3403L48.6924 40.3736L2.97853 25.7288L2.58232 33.9023C2.54849 34.9305 1.90982 35.2738 0.29718 34.5144L0.598933 9.57106C2.24207 2.75123 20.1213 0.900602 21.8497 0.409668C26.203 0.45924 24.6745 6.36721 25.4614 8.30101L23.3412 7.79057C23.8495 4.59281 23.7408 0.426773 19.0982 2.22139L19.2358 9.17417L18.2762 9.83305L17.771 2.59024L14.2545 3.49041L14.2327 11.7071L13.6466 11.4482L13.6474 11.449ZM55.5508 21.9042L55.4015 36.3367L50.7891 38.4458L51.1007 28.5892C51.5786 25.1599 52.1767 22.9483 55.5508 21.9041L55.5508 21.9042ZM69.845 16.8884L65.9964 18.1229L65.6827 31.4866L69.5906 29.7827L69.845 16.8884ZM60.4581 19.7305L56.5408 21.2031L56.0455 35.8606L60.2262 33.8635L60.4582 19.7304L60.4581 19.7305ZM65.3028 18.2813L65.2665 31.668L61.1589 33.6466L61.3325 19.408L65.3027 18.2812L65.3028 18.2813ZM73.074 18.9314L72.7378 28.1536L70.5072 29.2694L70.6463 16.5014C71.6644 16.8196 72.5617 16.6089 73.074 18.9312V18.9314Z" fill="#2E3436" fill-opacity="0.941"/>
<path fill-rule="evenodd" clip-rule="evenodd" d="M15.4546 18.1011C11.8539 18.1376 8.20812 19.7627 4.87054 17.1184L5.66099 14.5816C14.4615 12.7419 19.3753 18.6692 15.4546 18.1011Z" fill="#B2B2B2" stroke="white" stroke-width="3"/>
<path fill-rule="evenodd" clip-rule="evenodd" d="M16.9548 17.8736C15.1256 14.1694 9.87363 13.637 5.27069 14.4756C10.3129 11.5711 9.44732 10.8634 18.7161 7.32183C21.9749 5.1335 25.8248 7.19954 28.8134 9.95424C28.8134 12.7599 19.803 14.8819 16.9548 17.8738V17.8736Z" fill="#EFEFEF" stroke="white" stroke-width="3"/>
</svg>
