<svg width="27" height="51" viewBox="0 0 27 51" fill="none" xmlns="http://www.w3.org/2000/svg">
<path d="M22.5161 1.08764C22.5161 1.17117 22.4393 1.23952 22.3455 1.23952H18.3689C18.2751 1.23952 18.1983 1.17117 18.1983 1.08764V0.622582C18.1983 0.539049 18.2751 0.470703 18.3689 0.470703H22.3455C22.4393 0.470703 22.5161 0.539049 22.5161 0.622582V1.08764Z" fill="url(#paint0_linear_146_1702)"/>
<path d="M18.2176 0.55574H22.497C22.469 0.506047 22.4122 0.470703 22.3455 0.470703H18.3689C18.3022 0.470854 18.2456 0.506047 18.2176 0.55574Z" fill="url(#paint1_radial_146_1702)"/>
<path d="M0.980813 9.74693C0.980813 9.83054 0.904054 9.89894 0.810237 9.89894H0.170576C0.0767593 9.89894 0 9.83054 0 9.74693V7.8151C0 7.73149 0.0767593 7.66309 0.170576 7.66309H0.810237C0.904054 7.66309 0.980813 7.73149 0.980813 7.8151V9.74693Z" fill="url(#paint2_linear_146_1702)"/>
<path d="M0.113774 7.67285C0.0481025 7.69398 0 7.74886 0 7.81453V9.74636C0 9.81203 0.0479319 9.8669 0.113774 9.88803V7.67285Z" fill="url(#paint3_radial_146_1702)"/>
<path d="M0.844028 13.9857C0.844028 14.0693 0.767269 14.1377 0.673452 14.1377H0.19908C0.105263 14.1377 0.0285034 14.0693 0.0285034 13.9857V12.5563C0.0285034 12.4727 0.105263 12.4043 0.19908 12.4043H0.673452C0.767269 12.4043 0.844028 12.4727 0.844028 12.5563V13.9857Z" fill="url(#paint4_linear_146_1702)"/>
<path d="M0.113792 12.4277C0.0638127 12.4543 0.0285034 12.5008 0.0285034 12.5563V13.9858C0.0285034 14.0411 0.0638127 14.0876 0.113792 14.1143V12.4277Z" fill="url(#paint5_radial_146_1702)"/>
<path d="M0.844028 18.1596C0.844028 18.2431 0.767269 18.3115 0.673452 18.3115H0.19908C0.105263 18.3115 0.0285034 18.2431 0.0285034 18.1596V16.7301C0.0285034 16.6465 0.105263 16.5781 0.19908 16.5781H0.673452C0.767269 16.5781 0.844028 16.6465 0.844028 16.7301V18.1596Z" fill="url(#paint6_linear_146_1702)"/>
<path d="M0.113792 16.6016C0.0638127 16.6282 0.0285034 16.6747 0.0285034 16.7301V18.1596C0.0285034 18.2149 0.0638127 18.2614 0.113792 18.2882V16.6016Z" fill="url(#paint7_radial_146_1702)"/>
<path d="M27 47.3512C27 49.3578 25.1578 50.9996 22.9062 50.9996H4.40035C2.14874 50.9996 0.306519 49.3578 0.306519 47.3512V4.3564C0.306519 2.34979 2.14874 0.708008 4.40035 0.708008H22.9062C25.1578 0.708008 27 2.34979 27 4.3564V47.3512Z" fill="url(#paint8_linear_146_1702)"/>
<path d="M4.39953 50.6953C2.33027 50.6953 0.646851 49.195 0.646851 47.3509V4.35608C0.646851 2.51197 2.33027 1.01172 4.39953 1.01172H22.9053C24.9746 1.01172 26.658 2.51197 26.658 4.35608V47.3509C26.658 49.195 24.9746 50.6953 22.9053 50.6953H4.39953Z" fill="#4F5560"/>
<path d="M4.39951 50.6194C2.37732 50.6194 0.732117 49.1532 0.732117 47.351V4.35624C0.732117 2.55409 2.37732 1.08789 4.39951 1.08789H22.9053C24.9275 1.08789 26.5727 2.55409 26.5727 4.35624V47.351C26.5727 49.1532 24.9275 50.6194 22.9053 50.6194H4.39951Z" fill="#292B2D"/>
<path d="M4.39944 50.3909C2.51832 50.3909 0.987915 49.027 0.987915 47.3506V4.35576C0.987915 2.67932 2.51832 1.31543 4.39944 1.31543H22.9053C24.7864 1.31543 26.3168 2.67932 26.3168 4.35576V47.3506C26.3168 49.027 24.7864 50.3909 22.9053 50.3909H4.39944Z" fill="black"/>
<path d="M16.1548 5.10381C16.1548 5.3801 15.9034 5.60411 15.5933 5.60411H11.6985C11.3884 5.60411 11.137 5.3801 11.137 5.10381C11.137 4.82752 11.3884 4.60352 11.6985 4.60352H15.5933C15.9034 4.60352 16.1548 4.82752 16.1548 5.10381Z" fill="url(#paint9_radial_146_1702)"/>
<path d="M15.8423 5.07271C15.8423 5.20934 15.7181 5.32022 15.5651 5.32022H11.7058C11.5528 5.32022 11.4286 5.20934 11.4286 5.07271C11.4286 4.93608 11.5528 4.8252 11.7058 4.8252H15.5651C15.7183 4.8252 15.8423 4.93608 15.8423 5.07271Z" fill="#0F0F10"/>
<path d="M15.7277 5.15207L15.8011 5.08657L15.8371 5.11871C15.8384 5.11246 15.8384 5.10576 15.8393 5.09936L15.813 5.07591L15.84 5.05184C15.8393 5.04544 15.839 5.03874 15.8378 5.0325L15.8011 5.06525L15.7277 4.99975L15.7972 4.93776L15.7869 4.92542L15.7158 4.98894L15.6425 4.92344L15.7105 4.86266L15.695 4.8552L15.6305 4.91278L15.5572 4.84728L15.5804 4.82657L15.5652 4.8252H15.558L15.5452 4.83662L15.5324 4.8252H15.5082L15.5331 4.84743L15.4598 4.91293L15.3864 4.84743L15.4113 4.8252H15.3873L15.3745 4.83662L15.3617 4.8252H15.3376L15.3625 4.84743L15.2892 4.91293L15.2158 4.84743L15.2407 4.8252H15.2167L15.2039 4.83662L15.1911 4.8252H15.1671L15.192 4.84743L15.1186 4.91293L15.0453 4.84743L15.0702 4.8252H15.0461L15.0333 4.83662L15.0205 4.8252H14.9965L15.0214 4.84743L14.948 4.91293L14.8747 4.84743L14.8996 4.8252H14.8755L14.8627 4.83662L14.85 4.8252H14.8259L14.8508 4.84743L14.7775 4.91293L14.7041 4.84743L14.729 4.8252H14.705L14.6922 4.83662L14.6794 4.8252H14.6553L14.6802 4.84743L14.6069 4.91293L14.5335 4.84743L14.5584 4.8252H14.5344L14.5216 4.83662L14.5088 4.8252H14.4848L14.5097 4.84743L14.4363 4.91293L14.363 4.84743L14.3879 4.8252H14.3638L14.351 4.83662L14.3382 4.8252H14.3142L14.3391 4.84743L14.2657 4.91293L14.1924 4.84743L14.2173 4.8252H14.1932L14.1804 4.83662L14.1677 4.8252H14.1436L14.1685 4.84743L14.0952 4.91293L14.0218 4.84743L14.0467 4.8252H14.0227L14.0099 4.83662L13.9971 4.8252H13.973L13.9979 4.84743L13.9246 4.91293L13.8512 4.84743L13.8761 4.8252H13.8521L13.8393 4.83662L13.8265 4.8252H13.8024L13.8274 4.84743L13.754 4.91293L13.6807 4.84743L13.7056 4.8252H13.6815L13.6687 4.83662L13.6559 4.8252H13.6319L13.6568 4.84743L13.5834 4.91293L13.5101 4.84743L13.535 4.8252H13.5109L13.4981 4.83662L13.4853 4.8252H13.4613L13.4862 4.84743L13.4129 4.91293L13.3395 4.84743L13.3644 4.8252H13.3404L13.3276 4.83662L13.3148 4.8252H13.2907L13.3156 4.84743L13.2423 4.91293L13.1689 4.84743L13.1938 4.8252H13.1698L13.157 4.83662L13.1442 4.8252H13.1201L13.145 4.84743L13.0717 4.91293L12.9984 4.84743L13.0233 4.8252H12.9992L12.9864 4.83662L12.9736 4.8252H12.9496L12.9745 4.84743L12.9011 4.91293L12.8278 4.84743L12.8527 4.8252H12.8286L12.8158 4.83662L12.803 4.8252H12.779L12.8039 4.84743L12.7305 4.91293L12.6572 4.84743L12.6821 4.8252H12.6581L12.6453 4.83662L12.6325 4.8252H12.6084L12.6333 4.84743L12.56 4.91293L12.4866 4.84743L12.5115 4.8252H12.4875L12.4747 4.83662L12.4619 4.8252H12.4378L12.4627 4.84743L12.3894 4.91293L12.316 4.84743L12.3409 4.8252H12.3169L12.3041 4.83662L12.2913 4.8252H12.2673L12.2922 4.84743L12.2188 4.91293L12.1455 4.84743L12.1704 4.8252H12.1463L12.1335 4.83662L12.1207 4.8252H12.0967L12.1216 4.84743L12.0482 4.91293L11.9749 4.84743L11.9998 4.8252H11.9757L11.963 4.83662L11.9502 4.8252H11.9261L11.951 4.84743L11.8777 4.91293L11.8043 4.84743L11.8292 4.8252H11.8052L11.7924 4.83662L11.7796 4.8252H11.7555L11.7804 4.84743L11.7071 4.91293L11.6337 4.84743L11.6534 4.82992C11.6365 4.83281 11.6203 4.83723 11.6046 4.84271L11.6097 4.84728L11.5363 4.91278L11.515 4.89374C11.5109 4.89724 11.5072 4.9009 11.5033 4.9047L11.5244 4.92359L11.4511 4.98909L11.4471 4.98558C11.4415 4.99868 11.4367 5.01209 11.4337 5.0261L11.4511 5.01056L11.5244 5.07606L11.4511 5.14156L11.4359 5.128C11.4391 5.14079 11.4434 5.15328 11.4488 5.16516L11.4512 5.16303L11.5246 5.22853L11.5067 5.24452L11.5191 5.25488L11.5367 5.23919L11.6097 5.30438C11.6209 5.30804 11.6325 5.31154 11.6445 5.31398L11.6341 5.30469L11.7074 5.23919L11.7808 5.30469L11.763 5.32053H11.7871L11.7929 5.31535L11.7987 5.32053H11.8227L11.805 5.30469L11.8783 5.23919L11.9517 5.30469L11.934 5.32053H11.958L11.9638 5.31535L11.9696 5.32053H11.9937L11.9759 5.30469L12.0493 5.23919L12.1226 5.30469L12.1049 5.32053H12.1289L12.1347 5.31535L12.1405 5.32053H12.1646L12.1468 5.30469L12.2202 5.23919L12.2935 5.30469L12.2758 5.32053H12.2998L12.3056 5.31535L12.3114 5.32053H12.3355L12.3178 5.30469L12.3911 5.23919L12.4644 5.30469L12.4467 5.32053H12.4708L12.4766 5.31535L12.4824 5.32053H12.5064L12.4887 5.30469L12.562 5.23919L12.6354 5.30469L12.6176 5.32053H12.6417L12.6475 5.31535L12.6533 5.32053H12.6773L12.6596 5.30469L12.7329 5.23919L12.8063 5.30469L12.7885 5.32053H12.8126L12.8184 5.31535L12.8242 5.32053H12.8482L12.8305 5.30469L12.9039 5.23919L12.9772 5.30469L12.9595 5.32053H12.9835L12.9893 5.31535L12.9951 5.32053H13.0192L13.0014 5.30469L13.0748 5.23919L13.1481 5.30469L13.1304 5.32053H13.1544L13.1602 5.31535L13.166 5.32053H13.1901L13.1723 5.30469L13.2457 5.23919L13.319 5.30469L13.3013 5.32053H13.3253L13.3311 5.31535L13.3369 5.32053H13.361L13.3433 5.30469L13.4166 5.23919L13.49 5.30469L13.4722 5.32053H13.4963L13.5021 5.31535L13.5079 5.32053H13.5319L13.5142 5.30469L13.5875 5.23919L13.6609 5.30469L13.6431 5.32053H13.6672L13.673 5.31535L13.6788 5.32053H13.7028L13.6851 5.30469L13.7584 5.23919L13.8318 5.30469L13.814 5.32053H13.8381L13.8439 5.31535L13.8497 5.32053H13.8737L13.856 5.30469L13.9294 5.23919L14.0027 5.30469L13.985 5.32053H14.009L14.0148 5.31535L14.0206 5.32053H14.0447L14.0269 5.30469L14.1003 5.23919L14.1736 5.30469L14.1559 5.32053H14.1799L14.1857 5.31535L14.1915 5.32053H14.2156L14.1978 5.30469L14.2712 5.23919L14.3445 5.30469L14.3268 5.32053H14.3508L14.3566 5.31535L14.3624 5.32053H14.3865L14.3688 5.30469L14.4421 5.23919L14.5155 5.30469L14.4977 5.32053H14.5218L14.5276 5.31535L14.5334 5.32053H14.5574L14.5397 5.30469L14.613 5.23919L14.6864 5.30469L14.6686 5.32053H14.6927L14.6985 5.31535L14.7043 5.32053H14.7283L14.7106 5.30469L14.7839 5.23919L14.8573 5.30469L14.8396 5.32053H14.8636L14.8694 5.31535L14.8752 5.32053H14.8993L14.8815 5.30469L14.9549 5.23919L15.0282 5.30469L15.0105 5.32053H15.0345L15.0403 5.31535L15.0461 5.32053H15.0702L15.0524 5.30469L15.1258 5.23919L15.1991 5.30469L15.1814 5.32053H15.2054L15.2112 5.31535L15.217 5.32053H15.2411L15.2233 5.30469L15.2967 5.23919L15.37 5.30469L15.3523 5.32053H15.3764L15.3822 5.31535L15.388 5.32053H15.412L15.3943 5.30469L15.4676 5.23919L15.541 5.30469L15.5232 5.32053H15.5473L15.5531 5.31535L15.5589 5.32053H15.573C15.5761 5.32053 15.579 5.31977 15.5819 5.31977L15.565 5.30469L15.6384 5.23919L15.6982 5.29265L15.7138 5.28519L15.6503 5.22853L15.7236 5.16303L15.7915 5.22365C15.7949 5.21954 15.799 5.21604 15.8023 5.21193L15.7277 5.15207ZM15.7037 4.99975L15.6303 5.06525L15.557 4.99975L15.6303 4.93425L15.7037 4.99975ZM15.6184 5.07591L15.5451 5.1414L15.4717 5.07591L15.5451 5.01041L15.6184 5.07591ZM15.5451 4.8581L15.6184 4.92359L15.5451 4.98909L15.4717 4.92359L15.5451 4.8581ZM15.5331 4.99975L15.4598 5.06525L15.3864 4.99975L15.4598 4.93425L15.5331 4.99975ZM15.4478 5.07591L15.3745 5.1414L15.3011 5.07591L15.3745 5.01041L15.4478 5.07591ZM15.3745 4.8581L15.4478 4.92359L15.3745 4.98909L15.3011 4.92359L15.3745 4.8581ZM15.3625 4.99975L15.2892 5.06525L15.2158 4.99975L15.2892 4.93425L15.3625 4.99975ZM15.2772 5.07591L15.2039 5.1414L15.1306 5.07591L15.2039 5.01041L15.2772 5.07591ZM15.2039 4.8581L15.2772 4.92359L15.2039 4.98909L15.1306 4.92359L15.2039 4.8581ZM15.192 4.99975L15.1186 5.06525L15.0453 4.99975L15.1186 4.93425L15.192 4.99975ZM15.1067 5.07591L15.0333 5.1414L14.96 5.07591L15.0333 5.01041L15.1067 5.07591ZM15.0333 4.8581L15.1067 4.92359L15.0333 4.98909L14.96 4.92359L15.0333 4.8581ZM15.0214 4.99975L14.948 5.06525L14.8747 4.99975L14.948 4.93425L15.0214 4.99975ZM14.9361 5.07591L14.8627 5.1414L14.7894 5.07591L14.8627 5.01041L14.9361 5.07591ZM14.8627 4.8581L14.9361 4.92359L14.8627 4.98909L14.7894 4.92359L14.8627 4.8581ZM14.8508 4.99975L14.7775 5.06525L14.7041 4.99975L14.7775 4.93425L14.8508 4.99975ZM14.7655 5.07591L14.6922 5.1414L14.6188 5.07591L14.6922 5.01041L14.7655 5.07591ZM14.6922 4.8581L14.7655 4.92359L14.6922 4.98909L14.6188 4.92359L14.6922 4.8581ZM14.6802 4.99975L14.6069 5.06525L14.5335 4.99975L14.6069 4.93425L14.6802 4.99975ZM14.5949 5.07591L14.5216 5.1414L14.4482 5.07591L14.5216 5.01041L14.5949 5.07591ZM14.5216 4.8581L14.5949 4.92359L14.5216 4.98909L14.4482 4.92359L14.5216 4.8581ZM14.5097 4.99975L14.4363 5.06525L14.363 4.99975L14.4363 4.93425L14.5097 4.99975ZM14.4244 5.07591L14.351 5.1414L14.2777 5.07591L14.351 5.01041L14.4244 5.07591ZM14.351 4.8581L14.4244 4.92359L14.351 4.98909L14.2777 4.92359L14.351 4.8581ZM14.3391 4.99975L14.2657 5.06525L14.1924 4.99975L14.2657 4.93425L14.3391 4.99975ZM14.2538 5.07591L14.1804 5.1414L14.1071 5.07591L14.1804 5.01041L14.2538 5.07591ZM14.1804 4.8581L14.2538 4.92359L14.1804 4.98909L14.1071 4.92359L14.1804 4.8581ZM14.1685 4.99975L14.0952 5.06525L14.0218 4.99975L14.0952 4.93425L14.1685 4.99975ZM14.0832 5.07591L14.0099 5.1414L13.9365 5.07591L14.0099 5.01041L14.0832 5.07591ZM14.0099 4.8581L14.0832 4.92359L14.0099 4.98909L13.9365 4.92359L14.0099 4.8581ZM13.9979 4.99975L13.9246 5.06525L13.8512 4.99975L13.9246 4.93425L13.9979 4.99975ZM13.9126 5.07591L13.8393 5.1414L13.7659 5.07591L13.8393 5.01041L13.9126 5.07591ZM13.8393 4.8581L13.9126 4.92359L13.8393 4.98909L13.7659 4.92359L13.8393 4.8581ZM13.8274 4.99975L13.754 5.06525L13.6807 4.99975L13.754 4.93425L13.8274 4.99975ZM13.7421 5.07591L13.6687 5.1414L13.5954 5.07591L13.6687 5.01041L13.7421 5.07591ZM13.6687 4.8581L13.7421 4.92359L13.6687 4.98909L13.5954 4.92359L13.6687 4.8581ZM13.6568 4.99975L13.5834 5.06525L13.5101 4.99975L13.5834 4.93425L13.6568 4.99975ZM13.5715 5.07591L13.4981 5.1414L13.4248 5.07591L13.4981 5.01041L13.5715 5.07591ZM13.4981 4.8581L13.5715 4.92359L13.4981 4.98909L13.4248 4.92359L13.4981 4.8581ZM13.4862 4.99975L13.4129 5.06525L13.3395 4.99975L13.4129 4.93425L13.4862 4.99975ZM13.4009 5.07591L13.3276 5.1414L13.2542 5.07591L13.3276 5.01041L13.4009 5.07591ZM13.3276 4.8581L13.4009 4.92359L13.3276 4.98909L13.2542 4.92359L13.3276 4.8581ZM13.3156 4.99975L13.2423 5.06525L13.1689 4.99975L13.2423 4.93425L13.3156 4.99975ZM13.2303 5.07591L13.157 5.1414L13.0836 5.07591L13.157 5.01041L13.2303 5.07591ZM13.157 4.8581L13.2303 4.92359L13.157 4.98909L13.0836 4.92359L13.157 4.8581ZM13.145 4.99975L13.0717 5.06525L12.9984 4.99975L13.0717 4.93425L13.145 4.99975ZM13.0598 5.07591L12.9864 5.1414L12.9131 5.07591L12.9864 5.01041L13.0598 5.07591ZM12.9864 4.8581L13.0598 4.92359L12.9864 4.98909L12.9131 4.92359L12.9864 4.8581ZM12.9745 4.99975L12.9011 5.06525L12.8278 4.99975L12.9011 4.93425L12.9745 4.99975ZM12.8892 5.07591L12.8158 5.1414L12.7425 5.07591L12.8158 5.01041L12.8892 5.07591ZM12.8158 4.8581L12.8892 4.92359L12.8158 4.98909L12.7425 4.92359L12.8158 4.8581ZM12.8039 4.99975L12.7305 5.06525L12.6572 4.99975L12.7305 4.93425L12.8039 4.99975ZM12.7186 5.07591L12.6453 5.1414L12.5719 5.07591L12.6453 5.01041L12.7186 5.07591ZM12.6453 4.8581L12.7186 4.92359L12.6453 4.98909L12.5719 4.92359L12.6453 4.8581ZM12.6333 4.99975L12.56 5.06525L12.4866 4.99975L12.56 4.93425L12.6333 4.99975ZM12.548 5.07591L12.4747 5.1414L12.4013 5.07591L12.4747 5.01041L12.548 5.07591ZM12.4747 4.8581L12.548 4.92359L12.4747 4.98909L12.4013 4.92359L12.4747 4.8581ZM12.4627 4.99975L12.3894 5.06525L12.316 4.99975L12.3894 4.93425L12.4627 4.99975ZM12.3775 5.07591L12.3041 5.1414L12.2308 5.07591L12.3041 5.01041L12.3775 5.07591ZM12.3041 4.8581L12.3775 4.92359L12.3041 4.98909L12.2308 4.92359L12.3041 4.8581ZM12.2922 4.99975L12.2188 5.06525L12.1455 4.99975L12.2188 4.93425L12.2922 4.99975ZM12.2069 5.07591L12.1335 5.1414L12.0602 5.07591L12.1335 5.01041L12.2069 5.07591ZM12.1335 4.8581L12.2069 4.92359L12.1335 4.98909L12.0602 4.92359L12.1335 4.8581ZM12.1216 4.99975L12.0482 5.06525L11.9749 4.99975L12.0482 4.93425L12.1216 4.99975ZM12.0363 5.07591L11.963 5.1414L11.8896 5.07591L11.963 5.01041L12.0363 5.07591ZM11.963 4.8581L12.0363 4.92359L11.963 4.98909L11.8896 4.92359L11.963 4.8581ZM11.951 4.99975L11.8777 5.06525L11.8043 4.99975L11.8777 4.93425L11.951 4.99975ZM11.8657 5.07591L11.7924 5.1414L11.719 5.07591L11.7924 5.01041L11.8657 5.07591ZM11.7924 4.8581L11.8657 4.92359L11.7924 4.98909L11.719 4.92359L11.7924 4.8581ZM11.7804 4.99975L11.7071 5.06525L11.6337 4.99975L11.7071 4.93425L11.7804 4.99975ZM11.6951 5.07591L11.6218 5.1414L11.5485 5.07591L11.6218 5.01041L11.6951 5.07591ZM11.6218 4.8581L11.6951 4.92359L11.6218 4.98909L11.5485 4.92359L11.6218 4.8581ZM11.4633 4.99975L11.5367 4.93425L11.61 4.99975L11.5367 5.06525L11.4633 4.99975ZM11.4633 5.15207L11.5367 5.08657L11.61 5.15207L11.5367 5.21756L11.4633 5.15207ZM11.6218 5.29372L11.5485 5.22822L11.6218 5.16273L11.6951 5.22822L11.6218 5.29372ZM11.6339 5.15207L11.7073 5.08657L11.7806 5.15207L11.7073 5.21756L11.6339 5.15207ZM11.7924 5.29372L11.719 5.22822L11.7924 5.16273L11.8657 5.22822L11.7924 5.29372ZM11.8045 5.15207L11.8778 5.08657L11.9512 5.15207L11.8778 5.21756L11.8045 5.15207ZM11.963 5.29372L11.8896 5.22822L11.963 5.16273L12.0363 5.22822L11.963 5.29372ZM11.9751 5.15207L12.0484 5.08657L12.1218 5.15207L12.0484 5.21756L11.9751 5.15207ZM12.1335 5.29372L12.0602 5.22822L12.1335 5.16273L12.2069 5.22822L12.1335 5.29372ZM12.1456 5.15207L12.219 5.08657L12.2923 5.15207L12.219 5.21756L12.1456 5.15207ZM12.3041 5.29372L12.2308 5.22822L12.3041 5.16273L12.3775 5.22822L12.3041 5.29372ZM12.3162 5.15207L12.3896 5.08657L12.4629 5.15207L12.3896 5.21756L12.3162 5.15207ZM12.4747 5.29372L12.4013 5.22822L12.4747 5.16273L12.548 5.22822L12.4747 5.29372ZM12.4868 5.15207L12.5601 5.08657L12.6335 5.15207L12.5601 5.21756L12.4868 5.15207ZM12.6453 5.29372L12.5719 5.22822L12.6453 5.16273L12.7186 5.22822L12.6453 5.29372ZM12.6574 5.15207L12.7307 5.08657L12.8041 5.15207L12.7307 5.21756L12.6574 5.15207ZM12.8158 5.29372L12.7425 5.22822L12.8158 5.16273L12.8892 5.22822L12.8158 5.29372ZM12.8279 5.15207L12.9013 5.08657L12.9746 5.15207L12.9013 5.21756L12.8279 5.15207ZM12.9864 5.29372L12.9131 5.22822L12.9864 5.16273L13.0598 5.22822L12.9864 5.29372ZM12.9985 5.15207L13.0719 5.08657L13.1452 5.15207L13.0719 5.21756L12.9985 5.15207ZM13.157 5.29372L13.0836 5.22822L13.157 5.16273L13.2303 5.22822L13.157 5.29372ZM13.1691 5.15207L13.2424 5.08657L13.3158 5.15207L13.2424 5.21756L13.1691 5.15207ZM13.3276 5.29372L13.2542 5.22822L13.3276 5.16273L13.4009 5.22822L13.3276 5.29372ZM13.3397 5.15207L13.413 5.08657L13.4864 5.15207L13.413 5.21756L13.3397 5.15207ZM13.4981 5.29372L13.4248 5.22822L13.4981 5.16273L13.5715 5.22822L13.4981 5.29372ZM13.5103 5.15207L13.5836 5.08657L13.6569 5.15207L13.5836 5.21756L13.5103 5.15207ZM13.6687 5.29372L13.5954 5.22822L13.6687 5.16273L13.7421 5.22822L13.6687 5.29372ZM13.6808 5.15207L13.7542 5.08657L13.8275 5.15207L13.7542 5.21756L13.6808 5.15207ZM13.8393 5.29372L13.7659 5.22822L13.8393 5.16273L13.9126 5.22822L13.8393 5.29372ZM13.8514 5.15207L13.9248 5.08657L13.9981 5.15207L13.9248 5.21756L13.8514 5.15207ZM14.0099 5.29372L13.9365 5.22822L14.0099 5.16273L14.0832 5.22822L14.0099 5.29372ZM14.022 5.15207L14.0953 5.08657L14.1687 5.15207L14.0953 5.21756L14.022 5.15207ZM14.1804 5.29372L14.1071 5.22822L14.1804 5.16273L14.2538 5.22822L14.1804 5.29372ZM14.1926 5.15207L14.2659 5.08657L14.3393 5.15207L14.2659 5.21756L14.1926 5.15207ZM14.351 5.29372L14.2777 5.22822L14.351 5.16273L14.4244 5.22822L14.351 5.29372ZM14.3631 5.15207L14.4365 5.08657L14.5098 5.15207L14.4365 5.21756L14.3631 5.15207ZM14.5216 5.29372L14.4482 5.22822L14.5216 5.16273L14.5949 5.22822L14.5216 5.29372ZM14.5337 5.15207L14.6071 5.08657L14.6804 5.15207L14.6071 5.21756L14.5337 5.15207ZM14.6922 5.29372L14.6188 5.22822L14.6922 5.16273L14.7655 5.22822L14.6922 5.29372ZM14.7043 5.15207L14.7776 5.08657L14.851 5.15207L14.7776 5.21756L14.7043 5.15207ZM14.8627 5.29372L14.7894 5.22822L14.8627 5.16273L14.9361 5.22822L14.8627 5.29372ZM14.8749 5.15207L14.9482 5.08657L15.0216 5.15207L14.9482 5.21756L14.8749 5.15207ZM15.0333 5.29372L14.96 5.22822L15.0333 5.16273L15.1067 5.22822L15.0333 5.29372ZM15.0454 5.15207L15.1188 5.08657L15.1921 5.15207L15.1188 5.21756L15.0454 5.15207ZM15.2039 5.29372L15.1306 5.22822L15.2039 5.16273L15.2772 5.22822L15.2039 5.29372ZM15.216 5.15207L15.2894 5.08657L15.3627 5.15207L15.2894 5.21756L15.216 5.15207ZM15.3745 5.29372L15.3011 5.22822L15.3745 5.16273L15.4478 5.22822L15.3745 5.29372ZM15.3866 5.15207L15.4599 5.08657L15.5333 5.15207L15.4599 5.21756L15.3866 5.15207ZM15.5451 5.29372L15.4717 5.22822L15.5451 5.16273L15.6184 5.22822L15.5451 5.29372ZM15.6303 5.21756L15.557 5.15207L15.6303 5.08657L15.7037 5.15207L15.6303 5.21756ZM15.6425 5.07591L15.7158 5.01041L15.7891 5.07591L15.7158 5.1414L15.6425 5.07591Z" fill="url(#paint10_linear_146_1702)"/>
<path d="M14.1507 3.19731C14.1507 3.07815 14.0976 2.96388 14.0029 2.87963C13.9083 2.79538 13.78 2.74805 13.6462 2.74805C13.5123 2.74805 13.384 2.79538 13.2894 2.87963C13.1948 2.96388 13.1416 3.07815 13.1416 3.19731C13.1416 3.31646 13.1948 3.43073 13.2894 3.51498C13.384 3.59923 13.5123 3.64656 13.6462 3.64656C13.78 3.64656 13.9083 3.59923 14.0029 3.51498C14.0976 3.43073 14.1507 3.31646 14.1507 3.19731Z" fill="url(#paint11_linear_146_1702)"/>
<path d="M13.8682 3.19829C13.8682 3.1457 13.8448 3.09526 13.8031 3.05808C13.7615 3.02089 13.705 3 13.6461 3C13.5872 3 13.5307 3.02089 13.4891 3.05808C13.4474 3.09526 13.424 3.1457 13.424 3.19829C13.424 3.25088 13.4474 3.30131 13.4891 3.3385C13.5307 3.37568 13.5872 3.39657 13.6461 3.39657C13.705 3.39657 13.7615 3.37568 13.8031 3.3385C13.8448 3.30131 13.8682 3.25088 13.8682 3.19829Z" fill="url(#paint12_radial_146_1702)"/>
<path d="M13.5907 3.26868C13.5907 3.25621 13.5852 3.24426 13.5753 3.23544C13.5653 3.22663 13.5519 3.22168 13.5379 3.22168C13.5238 3.22168 13.5104 3.22663 13.5005 3.23544C13.4906 3.24426 13.485 3.25621 13.485 3.26868C13.485 3.28114 13.4906 3.29309 13.5005 3.30191C13.5104 3.31072 13.5238 3.31567 13.5379 3.31567C13.5519 3.31567 13.5653 3.31072 13.5753 3.30191C13.5852 3.29309 13.5907 3.28114 13.5907 3.26868Z" fill="url(#paint13_radial_146_1702)"/>
<path d="M13.8269 3.12707C13.8269 3.11461 13.8213 3.10266 13.8114 3.09384C13.8015 3.08503 13.788 3.08008 13.774 3.08008C13.76 3.08008 13.7465 3.08503 13.7366 3.09384C13.7267 3.10266 13.7211 3.11461 13.7211 3.12707C13.7211 3.13954 13.7267 3.15149 13.7366 3.1603C13.7465 3.16912 13.76 3.17407 13.774 3.17407C13.788 3.17407 13.8015 3.16912 13.8114 3.1603C13.8213 3.15149 13.8269 3.13954 13.8269 3.12707Z" fill="url(#paint14_radial_146_1702)"/>
<path d="M13.6531 3.11277C13.6531 3.09426 13.6449 3.0765 13.6303 3.06341C13.6156 3.05032 13.5958 3.04297 13.5751 3.04297C13.5545 3.04297 13.5346 3.05032 13.52 3.06341C13.5054 3.0765 13.4972 3.09426 13.4972 3.11277C13.4972 3.13128 13.5054 3.14903 13.52 3.16212C13.5346 3.17521 13.5545 3.18257 13.5751 3.18257C13.5958 3.18257 13.6156 3.17521 13.6303 3.16212C13.6449 3.14903 13.6531 3.13128 13.6531 3.11277Z" fill="url(#paint15_radial_146_1702)"/>
<path d="M25.2597 43.8549C25.2597 44.0221 25.1061 44.159 24.9185 44.159H2.31717C2.12953 44.159 1.97601 44.0221 1.97601 43.8549V7.92903C1.97601 7.76181 2.12953 7.625 2.31717 7.625H24.9185C25.1061 7.625 25.2597 7.76181 25.2597 7.92903V43.8549Z" fill="#0B0B0C"/>
<path d="M2.28857 7.9541H24.9752V43.9379H2.28857V7.9541Z" fill="white"/>
<path d="M26.3177 4.35576C26.3177 2.67932 24.7873 1.31543 22.9062 1.31543H11.6465L12.9193 4.60279H15.5941C15.9042 4.60279 16.1557 4.82686 16.1557 5.10322C16.1557 5.37959 15.9042 5.60366 15.5941 5.60366H13.307L26.3177 39.2039V4.35576ZM13.6467 3.6463C13.3679 3.6463 13.1421 3.44488 13.1421 3.19663C13.1421 2.94839 13.3681 2.74697 13.6467 2.74697C13.9252 2.74697 14.1512 2.94839 14.1512 3.19663C14.1512 3.44488 13.9254 3.6463 13.6467 3.6463Z" fill="url(#paint16_linear_146_1702)"/>
<path d="M16.0063 47.3198C16.0063 46.7269 15.742 46.1582 15.2715 45.7389C14.801 45.3196 14.1629 45.084 13.4975 45.084C12.8321 45.084 12.194 45.3196 11.7235 45.7389C11.253 46.1582 10.9886 46.7269 10.9886 47.3198C10.9886 47.9128 11.253 48.4815 11.7235 48.9008C12.194 49.3201 12.8321 49.5557 13.4975 49.5557C14.1629 49.5557 14.801 49.3201 15.2715 48.9008C15.742 48.4815 16.0063 47.9128 16.0063 47.3198Z" fill="black"/>
<path d="M13.4969 45.1324C14.8736 45.1324 15.99 46.1207 16.0045 47.3445C16.0045 47.3365 16.0059 47.3287 16.0059 47.3208C16.0059 46.0858 14.8826 45.085 13.497 45.085C12.1115 45.085 10.988 46.0858 10.988 47.3208C10.988 47.3289 10.9892 47.3366 10.9894 47.3445C11.0039 46.1207 12.1203 45.1324 13.4969 45.1324Z" fill="url(#paint17_radial_146_1702)"/>
<path d="M13.944 48.1496H13.0432C12.761 48.1496 12.5314 47.9451 12.5314 47.6937V46.9022C12.5314 46.6508 12.761 46.4463 13.0432 46.4463H13.944C14.2261 46.4463 14.4557 46.6508 14.4557 46.9022V47.6937C14.4557 47.9452 14.2261 48.1496 13.944 48.1496ZM13.0432 46.5983C12.855 46.5983 12.702 46.7346 12.702 46.9022V47.6937C12.702 47.8613 12.855 47.9976 13.0432 47.9976H13.944C14.1321 47.9976 14.2851 47.8613 14.2851 47.6937V46.9022C14.2851 46.7346 14.1321 46.5983 13.944 46.5983H13.0432Z" fill="url(#paint18_radial_146_1702)"/>
<path d="M13.4968 47.5101C12.5731 47.5101 11.7133 47.4556 10.9904 47.3623C11.0158 48.5775 12.1272 49.5559 13.4968 49.5559C14.8664 49.5559 15.9778 48.5774 16.0033 47.3623C15.2805 47.4556 14.4206 47.5101 13.4968 47.5101Z" fill="url(#paint19_linear_146_1702)"/>
<defs>
<linearGradient id="paint0_linear_146_1702" x1="18.1983" y1="-0.583035" x2="22.5156" y2="-0.583035" gradientUnits="userSpaceOnUse">
<stop stop-color="#1E1E1F"/>
<stop offset="0.0125" stop-color="#3D3C3E"/>
<stop offset="0.0362" stop-color="#606163"/>
<stop offset="0.0484" stop-color="#717375"/>
<stop offset="0.0783" stop-color="#4E4E50"/>
<stop offset="0.086" stop-color="#434344"/>
<stop offset="0.9409" stop-color="#4F4F51"/>
<stop offset="0.9416" stop-color="#555557"/>
<stop offset="0.9471" stop-color="#737578"/>
<stop offset="0.9525" stop-color="#8A8C8E"/>
<stop offset="0.9578" stop-color="#9A9C9E"/>
<stop offset="0.9629" stop-color="#A4A6A8"/>
<stop offset="0.9677" stop-color="#A7A9AC"/>
<stop offset="0.9782" stop-color="#7C7E80"/>
<stop offset="0.9881" stop-color="#57585A"/>
<stop offset="0.9957" stop-color="#39393A"/>
<stop offset="1" stop-color="#222223"/>
</linearGradient>
<radialGradient id="paint1_radial_146_1702" cx="0" cy="0" r="1" gradientUnits="userSpaceOnUse" gradientTransform="translate(20.2196 0.53686) scale(2.28777 2.02578)">
<stop stop-color="#A7A9AC"/>
<stop offset="0.1162" stop-color="#A4A6A8"/>
<stop offset="0.2397" stop-color="#9A9C9E"/>
<stop offset="0.3668" stop-color="#8A8C8E"/>
<stop offset="0.4963" stop-color="#737578"/>
<stop offset="0.6264" stop-color="#555557"/>
<stop offset="0.6452" stop-color="#4F4F51"/>
<stop offset="0.774" stop-color="#4D4E50"/>
<stop offset="0.8204" stop-color="#474749"/>
<stop offset="0.8533" stop-color="#383839"/>
<stop offset="0.871" stop-color="#222223"/>
<stop offset="0.926" stop-color="#39393A"/>
<stop offset="0.9516" stop-color="#434344"/>
<stop offset="0.9616" stop-color="#4E4E50"/>
<stop offset="1" stop-color="#717375"/>
</radialGradient>
<linearGradient id="paint2_linear_146_1702" x1="-1.1229" y1="7.66309" x2="-1.1229" y2="9.92463" gradientUnits="userSpaceOnUse">
<stop stop-color="#222223"/>
<stop offset="0.0101" stop-color="#39393A"/>
<stop offset="0.0278" stop-color="#57585A"/>
<stop offset="0.0509" stop-color="#7C7E80"/>
<stop offset="0.0753" stop-color="#A7A9AC"/>
<stop offset="0.1159" stop-color="#A4A6A8"/>
<stop offset="0.1592" stop-color="#9A9C9E"/>
<stop offset="0.2037" stop-color="#8A8C8E"/>
<stop offset="0.249" stop-color="#737578"/>
<stop offset="0.2945" stop-color="#555557"/>
<stop offset="0.3011" stop-color="#4F4F51"/>
<stop offset="0.9086" stop-color="#434344"/>
<stop offset="0.9175" stop-color="#4E4E50"/>
<stop offset="0.9516" stop-color="#717375"/>
<stop offset="0.9638" stop-color="#606163"/>
<stop offset="0.9875" stop-color="#3D3C3E"/>
<stop offset="1" stop-color="#1E1E1F"/>
</linearGradient>
<radialGradient id="paint3_radial_146_1702" cx="0" cy="0" r="1" gradientUnits="userSpaceOnUse" gradientTransform="translate(0.0604692 8.81206) scale(1.28043 1.14111)">
<stop stop-color="#A7A9AC"/>
<stop offset="0.1142" stop-color="#A4A6A8"/>
<stop offset="0.2357" stop-color="#9A9C9E"/>
<stop offset="0.3607" stop-color="#8A8C8E"/>
<stop offset="0.488" stop-color="#737578"/>
<stop offset="0.616" stop-color="#555557"/>
<stop offset="0.6344" stop-color="#4F4F51"/>
<stop offset="0.828" stop-color="#222223"/>
<stop offset="0.883" stop-color="#39393A"/>
<stop offset="0.9086" stop-color="#434344"/>
<stop offset="0.9274" stop-color="#4E4E50"/>
<stop offset="1" stop-color="#717375"/>
</radialGradient>
<linearGradient id="paint4_linear_146_1702" x1="-1.12289" y1="12.4137" x2="-1.12289" y2="14.1366" gradientUnits="userSpaceOnUse">
<stop stop-color="#222223"/>
<stop offset="0.0743" stop-color="#272728"/>
<stop offset="0.101" stop-color="#353536"/>
<stop offset="0.1201" stop-color="#464647"/>
<stop offset="0.1355" stop-color="#555658"/>
<stop offset="0.1487" stop-color="#68696B"/>
<stop offset="0.1604" stop-color="#7C7E81"/>
<stop offset="0.1708" stop-color="#949699"/>
<stop offset="0.1774" stop-color="#A7A9AC"/>
<stop offset="0.1881" stop-color="#A4A6A8"/>
<stop offset="0.1994" stop-color="#9A9C9E"/>
<stop offset="0.211" stop-color="#8A8C8E"/>
<stop offset="0.2229" stop-color="#737578"/>
<stop offset="0.2348" stop-color="#555557"/>
<stop offset="0.2366" stop-color="#4F4F51"/>
<stop offset="0.9086" stop-color="#434344"/>
<stop offset="0.9175" stop-color="#4E4E50"/>
<stop offset="0.9516" stop-color="#717375"/>
<stop offset="0.9638" stop-color="#606163"/>
<stop offset="0.9875" stop-color="#3D3C3E"/>
<stop offset="1" stop-color="#1E1E1F"/>
</linearGradient>
<radialGradient id="paint5_radial_146_1702" cx="0" cy="0" r="1" gradientUnits="userSpaceOnUse" gradientTransform="translate(0.106713 13.294) scale(0.966809 0.861369)">
<stop stop-color="#A7A9AC"/>
<stop offset="0.1162" stop-color="#A4A6A8"/>
<stop offset="0.2397" stop-color="#9A9C9E"/>
<stop offset="0.3668" stop-color="#8A8C8E"/>
<stop offset="0.4963" stop-color="#737578"/>
<stop offset="0.6264" stop-color="#555557"/>
<stop offset="0.6452" stop-color="#4F4F51"/>
<stop offset="0.8139" stop-color="#4D4E50"/>
<stop offset="0.8746" stop-color="#474749"/>
<stop offset="0.9178" stop-color="#383839"/>
<stop offset="0.9409" stop-color="#222223"/>
<stop offset="0.9812" stop-color="#39393A"/>
<stop offset="1" stop-color="#434344"/>
</radialGradient>
<linearGradient id="paint6_linear_146_1702" x1="-1.12289" y1="16.5879" x2="-1.12289" y2="18.3097" gradientUnits="userSpaceOnUse">
<stop stop-color="#222223"/>
<stop offset="0.0743" stop-color="#272728"/>
<stop offset="0.101" stop-color="#353536"/>
<stop offset="0.1201" stop-color="#464647"/>
<stop offset="0.1355" stop-color="#555658"/>
<stop offset="0.1487" stop-color="#68696B"/>
<stop offset="0.1604" stop-color="#7C7E81"/>
<stop offset="0.1708" stop-color="#949699"/>
<stop offset="0.1774" stop-color="#A7A9AC"/>
<stop offset="0.1881" stop-color="#A4A6A8"/>
<stop offset="0.1994" stop-color="#9A9C9E"/>
<stop offset="0.211" stop-color="#8A8C8E"/>
<stop offset="0.2229" stop-color="#737578"/>
<stop offset="0.2348" stop-color="#555557"/>
<stop offset="0.2366" stop-color="#4F4F51"/>
<stop offset="0.9086" stop-color="#434344"/>
<stop offset="0.9175" stop-color="#4E4E50"/>
<stop offset="0.9516" stop-color="#717375"/>
<stop offset="0.9638" stop-color="#606163"/>
<stop offset="0.9875" stop-color="#3D3C3E"/>
<stop offset="1" stop-color="#1E1E1F"/>
</linearGradient>
<radialGradient id="paint7_radial_146_1702" cx="0" cy="0" r="1" gradientUnits="userSpaceOnUse" gradientTransform="translate(0.106713 17.4678) scale(0.966809 0.861369)">
<stop stop-color="#A7A9AC"/>
<stop offset="0.1162" stop-color="#A4A6A8"/>
<stop offset="0.2397" stop-color="#9A9C9E"/>
<stop offset="0.3668" stop-color="#8A8C8E"/>
<stop offset="0.4963" stop-color="#737578"/>
<stop offset="0.6264" stop-color="#555557"/>
<stop offset="0.6452" stop-color="#4F4F51"/>
<stop offset="0.8139" stop-color="#4D4E50"/>
<stop offset="0.8746" stop-color="#474749"/>
<stop offset="0.9178" stop-color="#383839"/>
<stop offset="0.9409" stop-color="#222223"/>
<stop offset="0.9812" stop-color="#39393A"/>
<stop offset="1" stop-color="#434344"/>
</radialGradient>
<linearGradient id="paint8_linear_146_1702" x1="-1.12291" y1="0.708008" x2="-1.12291" y2="50.9996" gradientUnits="userSpaceOnUse">
<stop/>
<stop offset="0.0246" stop-color="#414042"/>
<stop offset="0.0493" stop-color="#BDBFC1"/>
<stop offset="0.0726" stop-color="#2E2D2F"/>
<stop offset="0.8916" stop-color="#1E1E1F"/>
<stop offset="0.901" stop-color="#2B2B2C"/>
<stop offset="0.9127" stop-color="#454446"/>
<stop offset="0.9257" stop-color="#5C5C5F"/>
<stop offset="0.9395" stop-color="#787A7C"/>
<stop offset="0.954" stop-color="#9A9C9E"/>
<stop offset="0.9589" stop-color="#A7A9AC"/>
<stop offset="0.9605" stop-color="#939698"/>
<stop offset="0.9629" stop-color="#7C7E80"/>
<stop offset="0.9656" stop-color="#67686B"/>
<stop offset="0.9686" stop-color="#555557"/>
<stop offset="0.9722" stop-color="#454547"/>
<stop offset="0.9766" stop-color="#343435"/>
<stop offset="0.9828" stop-color="#262526"/>
<stop offset="1" stop-color="#212122"/>
</linearGradient>
<radialGradient id="paint9_radial_146_1702" cx="0" cy="0" r="1" gradientUnits="userSpaceOnUse" gradientTransform="translate(13.6461 6.33221) scale(2.39574 2.13446)">
<stop stop-color="#4F4F51"/>
<stop offset="0.2693" stop-color="#515153"/>
<stop offset="0.3663" stop-color="#57575A"/>
<stop offset="0.4355" stop-color="#616264"/>
<stop offset="0.4914" stop-color="#6E7072"/>
<stop offset="0.5393" stop-color="#7F8183"/>
<stop offset="0.5809" stop-color="#939597"/>
<stop offset="0.6129" stop-color="#A7A9AC"/>
<stop offset="0.6871" stop-color="#8E9092"/>
<stop offset="0.8343" stop-color="#606163"/>
<stop offset="0.9428" stop-color="#3D3C3E"/>
<stop offset="1" stop-color="#1E1E1F"/>
</radialGradient>
<linearGradient id="paint10_linear_146_1702" x1="11.4338" y1="-0.594668" x2="15.84" y2="-0.594668" gradientUnits="userSpaceOnUse">
<stop stop-color="#4F4F51"/>
<stop offset="0.2693" stop-color="#515153"/>
<stop offset="0.3663" stop-color="#57575A"/>
<stop offset="0.4355" stop-color="#616264"/>
<stop offset="0.4914" stop-color="#6E7072"/>
<stop offset="0.5393" stop-color="#7F8183"/>
<stop offset="0.5809" stop-color="#939597"/>
<stop offset="0.6129" stop-color="#A7A9AC"/>
<stop offset="0.6871" stop-color="#8E9092"/>
<stop offset="0.8343" stop-color="#606163"/>
<stop offset="0.9428" stop-color="#3D3C3E"/>
<stop offset="1" stop-color="#1E1E1F"/>
</linearGradient>
<linearGradient id="paint11_linear_146_1702" x1="13.102" y1="2.77159" x2="14.1262" y2="3.78206" gradientUnits="userSpaceOnUse">
<stop stop-color="#222223"/>
<stop offset="0.4812" stop-color="#272728"/>
<stop offset="0.6546" stop-color="#353536"/>
<stop offset="0.7781" stop-color="#464647"/>
<stop offset="0.878" stop-color="#555658"/>
<stop offset="0.9626" stop-color="#67696B"/>
<stop offset="1" stop-color="#717375"/>
</linearGradient>
<radialGradient id="paint12_radial_146_1702" cx="0" cy="0" r="1" gradientUnits="userSpaceOnUse" gradientTransform="translate(13.7421 3.21428) scale(0.355413 0.31732)">
<stop stop-color="#00062F"/>
<stop offset="0.2232" stop-color="#000830"/>
<stop offset="0.4278" stop-color="#000F34"/>
<stop offset="0.6249" stop-color="#00173B"/>
<stop offset="0.8164" stop-color="#012143"/>
<stop offset="1" stop-color="#212D4E"/>
</radialGradient>
<radialGradient id="paint13_radial_146_1702" cx="0" cy="0" r="1" gradientUnits="userSpaceOnUse" gradientTransform="translate(13.5607 3.27247) scale(0.0844697 0.0750715)">
<stop stop-color="#39BCED"/>
<stop offset="0.3637" stop-color="#0076A4"/>
<stop offset="1" stop-color="#00062F"/>
</radialGradient>
<radialGradient id="paint14_radial_146_1702" cx="0" cy="0" r="1" gradientUnits="userSpaceOnUse" gradientTransform="translate(13.8346 3.11116) scale(0.148502 0.131982)">
<stop stop-color="#39BCED"/>
<stop offset="0.3637" stop-color="#0076A4"/>
<stop offset="1" stop-color="#00062F"/>
</radialGradient>
<radialGradient id="paint15_radial_146_1702" cx="0" cy="0" r="1" gradientUnits="userSpaceOnUse" gradientTransform="translate(13.6087 3.11842) scale(0.124657 0.111617)">
<stop stop-color="#24132E"/>
<stop offset="0.3463" stop-color="#261732"/>
<stop offset="0.6634" stop-color="#2E213B"/>
<stop offset="0.9683" stop-color="#3A2F4A"/>
<stop offset="1" stop-color="#3B304C"/>
</radialGradient>
<linearGradient id="paint16_linear_146_1702" x1="-1.12285" y1="1.31543" x2="-1.12285" y2="39.0657" gradientUnits="userSpaceOnUse">
<stop stop-color="white" stop-opacity="0.5"/>
<stop offset="0.1235" stop-color="white" stop-opacity="0.4382"/>
<stop offset="1" stop-color="white" stop-opacity="0"/>
</linearGradient>
<radialGradient id="paint17_radial_146_1702" cx="0" cy="0" r="1" gradientUnits="userSpaceOnUse" gradientTransform="translate(13.4829 45.0885) scale(3.21963 2.86931)">
<stop stop-color="white" stop-opacity="0.5"/>
<stop offset="0.1235" stop-color="white" stop-opacity="0.4382"/>
<stop offset="1" stop-color="white" stop-opacity="0"/>
</radialGradient>
<radialGradient id="paint18_radial_146_1702" cx="0" cy="0" r="1" gradientUnits="userSpaceOnUse" gradientTransform="translate(12.8289 46.5154) scale(2.27139 2.02368)">
<stop stop-color="#ABADB0"/>
<stop offset="0.1017" stop-color="#9FA1A3"/>
<stop offset="0.2907" stop-color="#8D8F91"/>
<stop offset="0.493" stop-color="#808285"/>
<stop offset="0.7161" stop-color="#797B7D"/>
<stop offset="1" stop-color="#77787B"/>
</radialGradient>
<linearGradient id="paint19_linear_146_1702" x1="-1.12294" y1="50.1392" x2="-1.12294" y2="44.7654" gradientUnits="userSpaceOnUse">
<stop stop-color="white" stop-opacity="0.5"/>
<stop offset="0.1235" stop-color="white" stop-opacity="0.4382"/>
<stop offset="1" stop-color="white" stop-opacity="0"/>
</linearGradient>
</defs>
</svg>
